<svg id="a6a6a341-3a51-46a2-bc5f-282efc6f2fc3" data-name="Layer 1" xmlns="http://www.w3.org/2000/svg" viewBox="0 0 978.31 333.74"><defs><style>.acc373b8-081b-49b1-ab1c-5df1a9c92b5d{fill:#2b80de;}.f785663f-cfe2-4579-b8ee-b314b972da4f{fill:#189d8c;}.b424e3b7-1b6e-403e-9dc3-8b9603ddecad{fill:#9c2dc0;}.f667fec6-9572-40da-a2bb-c424b5846e71{fill:#f31f2a;}.f42439c1-745b-483b-a463-6be5c7e97712{fill:#fa851f;}</style></defs><path class="acc373b8-081b-49b1-ab1c-5df1a9c92b5d" d="M80.41,250.18q-.06-83.94-.18-167.89c0-3.68,1.39-4.32,4.66-4.28,13.49.16,27,.34,40.47,0,5.66-.16,9.25,2.18,12.36,6.4,13.88,18.86,27.82,37.67,41.92,56.73C195,120.9,210,101.07,225,81.19c1.46-1.93,2.76-3.24,5.57-3.2q21.5.3,43,0c3.41-.05,4.35.6,4.35,4.22q-.06,83.94.17,167.9a10.49,10.49,0,0,1-.75,2.7c-11.23-.24-22.56-1.49-33.66-.43-11.56,1.1-14.06-2.76-13.67-13.85.93-26.21.33-52.47.28-78.71a37.23,37.23,0,0,0-.89-5.68c-8.33,7.91-14.53,17.53-21.49,26.55-8.53,11.06-17.21,22-25.67,33.12-2.4,3.16-3.73,3-6.11-.18-14.18-18.94-28.56-37.73-42.92-56.54-1-1.28-1.37-3.53-3.84-3a37.52,37.52,0,0,0-.88,5.69c-.06,29-.12,58,.05,87,0,4.12-1.1,5.5-5.31,5.41-12.33-.26-24.66-.14-37-.09C84,252.15,81.9,252.17,80.41,250.18Z"/><path class="f785663f-cfe2-4579-b8ee-b314b972da4f" d="M424.59,77.39V192.15a64.66,64.66,0,1,1-129.32,0v-4.94h46.37v7.62a16.24,16.24,0,0,0,32.46,1c0-.33,0-.65,0-1s0-.65,0-1V77.39Z"/><path class="b424e3b7-1b6e-403e-9dc3-8b9603ddecad" d="M640.18,170.83c0-30.27.06-59.18-.09-88.1,0-3.62.11-4.85,4.62-4.84,13.59,0,27.24,1.41,40.78-.73,2.83-.45,2.88,1.13,2.88,3.18q0,84.45,0,168.9c0,3.32-1.61,3.87-4.32,3.86-13.66,0-27.34.41-41-.18-6.72-.29-7.74-7.85-10.73-12.13-19.62-28.15-38.54-56.79-58-85.74,0,17.45,0,34.62,0,51.8,0,14.16-.09,28.32.07,42.47,0,3-.65,4-3.8,4-13.32-.16-26.65-.13-40,0-2.9,0-3.59-.94-3.59-3.72q.15-84.45,0-168.9c0-2.79.66-3.77,3.56-3.75q22.23.18,44.47,0a5,5,0,0,1,4.78,2.71q28.83,44.08,57.82,88.05C638.21,168.38,638.76,169,640.18,170.83Z"/><path class="f667fec6-9572-40da-a2bb-c424b5846e71" d="M808.25,208c-9.92,13.46-20,26.83-29.68,40.43-2.37,3.31-5.06,4.8-9,4.79-18,0-36,0-54,0a15.65,15.65,0,0,1-3.18-.66,25.54,25.54,0,0,1,1.54-2.82q28.26-39.13,56.63-78.17c1.69-2.32,1.66-3.52,0-5.86-20.4-29-40.64-58-61.31-87.59,21.14,0,41.88,0,62.62.09,1,0,2.23,1.16,2.9,2.11q16.32,23.14,32.52,46.39a.36.36,0,0,0,.28.46.73.73,0,0,1,.57.58c8.53,12.18,17,24.43,25.67,36.52,2.07,2.89,1.94,5-.11,7.85C825.14,184,816.73,196,808.25,208Z"/><path class="b424e3b7-1b6e-403e-9dc3-8b9603ddecad" d="M453.14,77.6c15.29,0,30.28.23,45.25-.19,3.18-.09,4,0,4,3.23q-.09,83.94,0,167.89c0,3.39-1.12,4.7-4.67,4.65-13.66-.18-27.31-.12-41-.08-2.18,0-3.71.07-3.7-3Q453.2,164,453.14,77.6Z"/><path class="f42439c1-745b-483b-a463-6be5c7e97712" d="M808.25,208c8.48-12,16.89-24,25.51-35.91,2-2.83,2.18-5,.11-7.85-8.68-12.09-17.14-24.34-25.67-36.52,11.12-15.4,22.35-30.73,33.26-46.28a7.32,7.32,0,0,1,6.93-3.52C865.7,78,883,78,900.33,78a25.51,25.51,0,0,1,3.75.55,20.1,20.1,0,0,1-1.64,3.89c-19,27.23-37.92,54.52-57.17,81.57-2.94,4.12-2.82,6.63.07,10.66,17.15,23.84,33.9,48,51,71.87,3.49,4.88,1.86,6.63-3.24,6.66-16.82.1-33.64.2-50.45-.07-5.15-.08-6.22-5.47-8.61-8.75C825.22,232.39,816.8,220.13,808.25,208Z"/><path class="f785663f-cfe2-4579-b8ee-b314b972da4f" d="M80.41,250.18c1.49,2,3.59,2,5.81,2,12.33,0,24.66-.17,37,.09,4.21.09,5.33-1.29,5.31-5.41-.17-29-.11-58-.05-87a37.52,37.52,0,0,1,.88-5.69c.05,31.81.06,63.61.19,95.42,0,2.82-.79,3.65-3.66,3.62-14-.14-28,0-42,0C81.84,253.19,79.67,253.43,80.41,250.18Z"/><path class="f785663f-cfe2-4579-b8ee-b314b972da4f" d="M229.38,154.16a37.23,37.23,0,0,1,.89,5.68c0,26.24.65,52.5-.28,78.71-.39,11.09,2.11,14.95,13.67,13.85,11.1-1.06,22.43.19,33.66.43-15.15.11-30.3.18-45.45.37-2.87,0-2.62-1.67-2.62-3.57Q229.34,201.89,229.38,154.16Z"/><path class="f42439c1-745b-483b-a463-6be5c7e97712" d="M807.63,127.11a.36.36,0,0,1-.28-.46l.31.13Z"/></svg>